<?xml version="1.0" encoding="utf-8"?>
<!-- Generator: Adobe Illustrator 26.4.1, SVG Export Plug-In . SVG Version: 6.00 Build 0)  -->
<svg version="1.1" id="Layer_1" xmlns="http://www.w3.org/2000/svg" xmlns:xlink="http://www.w3.org/1999/xlink" x="0px" y="0px"
	 viewBox="0 0 700 700" style="enable-background:new 0 0 700 700;" xml:space="preserve">
<g>
	<path d="M520,348.7c-11.3,0.1-22.2-4.5-30.2-12.8c-8-8.2-12.5-19.5-12.5-31.2c0-11.7,4.5-22.9,12.6-31.1L587.6,173L489.8,72.5
		c-9.4-11.3-12.6-26.7-8.5-41C485.4,17.2,496.2,6,510,1.8c13.8-4.2,28.8-0.9,39.7,8.8l127.5,131.7c7.9,8.2,12.4,19.4,12.4,31
		c0,11.6-4.4,22.7-12.4,31L549.7,336C541.8,344.1,531.1,348.6,520,348.7L520,348.7z"/>
	<path d="M52.5,348.7c-11.3,0-22.1-4.6-30.1-12.9c-8-8.2-12.5-19.4-12.5-31v-43.9c0-34.9,13.4-68.4,37.3-93.1s56.3-38.6,90.1-38.6
		h510c15.2,0,29.2,8.4,36.8,22c7.6,13.6,7.6,30.3,0,43.9c-7.6,13.6-21.6,22-36.8,22h-510c-11.3,0-22.1,4.6-30,12.9
		c-8,8.2-12.5,19.4-12.5,31v43.9c0,11.6-4.5,22.8-12.5,31C74.6,344.1,63.8,348.7,52.5,348.7L52.5,348.7z"/>
	<path d="M180,700c-11.3,0.1-22.2-4.5-30.2-12.7L22.4,555.5c-7.9-8.2-12.4-19.4-12.4-31c0-11.6,4.4-22.7,12.4-31l127.5-131.7
		c10.9-9.7,25.9-13,39.7-8.8c13.8,4.2,24.6,15.4,28.7,29.7c4.1,14.3,0.9,29.7-8.5,41l-97.3,100.6l97.3,100.6
		c8,8.2,12.5,19.4,12.6,31c0,11.6-4.4,22.8-12.3,31.1C202.1,695.3,191.3,699.9,180,700L180,700z"/>
	<path d="M562.5,568.3h-510c-15.2,0-29.2-8.4-36.8-22s-7.6-30.3,0-43.9c7.6-13.6,21.6-22,36.8-22h510c11.3,0,22.1-4.6,30-12.9
		c8-8.2,12.5-19.4,12.5-31v-43.9c0-15.7,8.1-30.2,21.3-38c13.1-7.8,29.3-7.8,42.5,0s21.3,22.3,21.3,38v43.9
		c0,34.9-13.4,68.4-37.3,93.1C628.7,554.4,596.3,568.3,562.5,568.3L562.5,568.3z"/>
</g>
</svg>
